<svg version="1.1" id="Layer_1" xmlns="http://www.w3.org/2000/svg" xmlns:xlink="http://www.w3.org/1999/xlink" x="0px" y="0px"
	 width="100%" viewBox="0 0 512 512" enable-background="new 0 0 512 512" xml:space="preserve">
<path fill="#FFFFFF" opacity="1.000000" stroke="none"
	d="
M106.000084,88.669205
	C124.498863,88.670189 142.499680,88.818192 160.494949,88.567703
	C164.900024,88.506386 167.430054,89.945702 169.693665,93.675079
	C195.196564,135.692001 220.849533,177.617828 246.468781,219.564087
	C250.637314,226.389175 254.825760,233.202194 259.034454,240.002548
	C259.792969,241.228180 260.222565,242.803864 261.982513,243.201523
	C263.796539,242.376236 264.422150,240.551559 265.339020,239.030533
	C294.153931,191.228638 323.028931,143.462372 351.611176,95.521591
	C354.759125,90.241516 358.186005,88.443909 364.277527,88.478477
	C398.769623,88.674225 433.264374,88.384918 467.758331,88.293663
	C469.377960,88.289375 471.108124,88.068001 473.101929,89.682732
	C402.984009,205.317093 332.833771,321.004700 262.131134,437.603302
	C190.134628,321.104401 118.693451,205.504028 46.489506,88.669441
	C67.029938,88.669441 86.265007,88.669441 106.000084,88.669205
M257.419983,339.098877
	C250.315002,327.627106 243.179291,316.174286 236.110367,304.680328
	C204.431976,253.171844 172.749176,201.665985 141.166611,150.098770
	C139.344589,147.123825 137.213730,146.117950 133.864822,146.162735
	C122.368652,146.316528 110.869171,146.209763 99.371246,146.263763
	C97.954506,146.270416 96.368607,145.765396 94.715012,147.429413
	C142.494400,224.745728 190.318893,302.135040 238.120010,379.486511
	C240.693619,378.352081 241.180084,376.428223 242.090698,374.924622
	C247.441284,366.089844 252.554733,357.108368 258.046143,348.363525
	C260.051544,345.170074 260.049225,342.552307 257.419983,339.098877
M382.136322,219.683029
	C396.796173,195.552032 411.456024,171.421021 426.720917,146.294037
	C416.282593,146.294037 407.007751,146.545242 397.756622,146.185974
	C393.262207,146.011459 390.939514,147.744659 388.705811,151.471420
	C362.331848,195.474991 335.768707,239.365112 309.289124,283.305450
	C288.657074,317.542358 268.066620,351.804352 247.483261,386.070587
	C246.410751,387.856049 244.505463,389.627167 245.917847,391.966949
	C251.042465,400.456451 256.273560,408.881622 262.018005,418.232025
	C302.322296,351.616852 342.044647,285.963501 382.136322,219.683029
M231.249390,277.311096
	C242.747711,295.985962 254.246048,314.660797 265.675568,333.223907
	C268.182678,332.424042 268.580780,330.631775 269.407166,329.280273
	C273.317261,322.885529 276.730225,316.141724 281.105865,310.090271
	C284.927094,304.805603 284.459137,300.766174 281.109772,295.337433
	C251.545532,247.418671 222.252182,199.332489 193.002197,151.220764
	C190.863251,147.702515 188.572479,146.011749 184.298141,146.157089
	C175.143707,146.468338 165.971130,146.221085 156.806458,146.278778
	C155.219376,146.288773 153.480255,145.773636 151.448502,147.521454
	C177.905701,190.537704 204.397141,233.609634 231.249390,277.311096
M321.791107,165.222015
	C304.819214,193.472351 287.899261,221.754196 270.805176,249.930405
	C268.817413,253.206848 268.603790,255.697083 270.704315,258.989563
	C276.880493,268.670441 282.722137,278.564301 288.759583,288.334717
	C289.566284,289.640137 289.967773,291.511047 292.176819,291.698120
	C321.269165,243.525452 350.350006,195.371811 379.954163,146.351624
	C364.308014,146.351624 350.012543,146.375061 335.717255,146.328827
	C333.303558,146.321014 332.183441,147.833405 331.132599,149.595200
	C328.148376,154.598419 325.158051,159.598007 321.791107,165.222015
M75.708397,116.839378
	C78.637276,121.686699 81.741119,126.439323 84.433609,131.414566
	C86.234024,134.741394 88.498199,136.048035 92.370483,136.028320
	C120.695175,135.883957 149.021042,135.980652 177.346466,135.940857
	C179.064331,135.938446 180.971390,136.581589 182.902649,134.923096
	C176.384048,124.284683 169.763947,113.735863 163.440063,103.012352
	C161.409760,99.569550 158.973282,98.271996 154.984634,98.293304
	C127.326393,98.441063 99.666992,98.364037 72.008026,98.404167
	C69.910172,98.407211 67.689270,98.005669 65.246773,99.672417
	C68.617233,105.211021 71.968300,110.717758 75.708397,116.839378
M364.396606,98.496002
	C361.804535,98.643082 360.845978,100.676704 359.726807,102.531342
	C353.787415,112.373840 347.830444,122.205795 341.925110,132.068665
	C341.307220,133.100586 339.988770,134.013809 340.838959,135.589996
	C341.339050,135.691666 341.822876,135.875900 342.306763,135.876160
	C371.470917,135.891647 400.635162,135.867096 429.799164,135.934509
	C432.546722,135.940857 434.014465,134.636414 435.301300,132.457779
	C440.046448,124.424263 444.944122,116.480835 449.687286,108.446182
	C451.497681,105.379501 453.853088,102.564964 455.079376,98.446808
	C424.763031,98.446808 394.999634,98.446808 364.396606,98.496002
z"/>
</svg>
